# AST/ASF file generated using VICON BodyLanguage
# -----------------------------------------------
:version 1.10
:name VICON
:units
  mass 1.0
  length 0.45
  angle deg
:documentation
   .ast/.asf automatically generated from VICON data using
   VICON BodyBuilder and BodyLanguage model FoxedUp or BRILLIANT.MOD
:root
   order TX TY TZ RX RY RZ
   axis XYZ
   position 0 0 0  
   orientation 0 0 0 
:bonedata
  begin
     id 1 
     name lhipjoint
     direction 0.734343 -0.627749 0.258209 
     length 2.5437 
     axis 0 0 0  XYZ
  end
  begin
     id 2 
     name lfemur
     direction 0.34202 -0.939693 0  
     length 6.7391  
     axis 0 0 20  XYZ
    dof rx ry rz
    limits (-160.0 20.0)
           (-70.0 70.0)
           (-60.0 70.0)
  end
  begin
     id 3 
     name ltibia
     direction 0.34202 -0.939693 0   
     length 7.21536   
     axis 0 0 20   XYZ
    dof rx
    limits (-10.0 170.0)
  end
  begin
     id 4 
     name lfoot
     direction 0.0489572 -0.134509 0.989702   
     length 1.61313   
     axis -90 7.62852e-016 20   XYZ
    dof rx rz
    limits (-45.0 90.0)
           (-70.0 20.0)
  end
  begin
     id 5 
     name ltoes
     direction 1.53451e-011 -4.21692e-011 1   
     length 0.823104   
     axis -90 7.62852e-016 20   XYZ
    dof rx
    limits (-90.0 20.0)
  end
  begin
     id 6 
     name rhipjoint
     direction -0.746398 -0.615468 0.253157   
     length 2.59446  
     axis 0 0 0  XYZ 
  end
  begin
     id 7 
     name rfemur
     direction -0.34202 -0.939693 0   
     length 6.7075   
     axis 0 0 -20   XYZ
    dof rx ry rz
    limits (-160.0 20.0)
           (-70.0 70.0)
           (-70.0 60.0)
  end
  begin
     id 8 
     name rtibia
     direction -0.34202 -0.939693 0   
     length 7.27262   
     axis 0 0 -20   XYZ
    dof rx
    limits (-10.0 170.0)
 end
 begin
     id 9 
     name rfoot
     direction -0.0455203 -0.125066 0.991104   
     length 1.91095  
     axis -90 -7.62852e-016 -20   XYZ
    dof rx rz
    limits (-45.0 90.0)
           (-20.0 70.0)
  end
  begin
     id 10 
     name rtoes
     direction -1.53601e-011 -4.21913e-011 1   
     length 0.969037   
     axis -90 -7.62852e-016 -20   XYZ
    dof rx
    limits (-90.0 20.0)
  end
  begin
     id 11 
     name lowerback
     direction 0.0181546 0.999122 -0.0377542   
     length 1.99916   
     axis 0 0 0   XYZ
    dof rx ry rz
    limits (-20.0 45.0)
           (-30.0 30.0)
           (-30.0 30.0)
  end
  begin
     id 12 
     name upperback
     direction 0.0203486 0.99589 0.0882534   
     length 1.951   
     axis 0 0 0   XYZ
    dof rx ry rz
    limits (-20.0 45.0)
           (-30.0 30.0)
           (-30.0 30.0)
  end
  begin
     id 13 
     name thorax
     direction 0.0131685 0.994241 0.106355   
     length 1.97461   
     axis 0 0 0   XYZ
    dof rx ry rz
    limits (-20.0 45.0)
           (-30.0 30.0)
           (-30.0 30.0)
  end
  begin
     id 14 
     name lowerneck
     direction -0.0281395 0.999325 0.023617   
     length 1.7959   
     axis 0 0 0   XYZ
    dof rx ry rz
    limits (-20.0 45.0)
           (-30.0 30.0)
           (-30.0 30.0)
  end
  begin
     id 15 
     name upperneck
     direction 0.0288721 0.991984 -0.123019   
     length 1.79917   
     axis 0 0 0   XYZ
    dof rx ry rz
    limits (-20.0 45.0)
           (-30.0 30.0)
           (-30.0 30.0)
  end
  begin
     id 16
     name head
     direction 0.0133797 0.998944 -0.0439492  
     length 1.80902  
     axis 0 0 0   XYZ
    dof rx ry rz
    limits (-20.0 45.0)
           (-30.0 30.0)
           (-30.0 30.0)
  end
  begin
     id 17 
     name lclavicle
     direction 0.919195 0.377107 0.113449  
     length 3.17815  
     axis 0 0 0   XYZ
    dof ry rz
    limits (-20.0 10.0)
           (0.0 20.0)
  end
  begin
     id 18 
     name lhumerus
     direction 1 -4.48959e-011 2.13129e-027   
     length 4.84137   
     axis 180 -30 -90   XYZ
    dof rx ry rz
    limits (-60.0 90.0)
           (-90.0 90.0)
           (-90.0 90.0)
  end
  begin
     id 19
     name lradius
     direction 1 -4.48957e-011 -6.30627e-028   
     length 3.2452   
     axis 180 -30 -90   XYZ
    dof rx
    limits (-10.0 170.0)
  end
  begin
     id 20
     name lwrist
     direction 1 -4.4901e-011 9.13299e-027   
     length 1.6226   
     axis -6.84618e-015 90 90   XYZ
    dof ry
    limits (-180.0 0.0)
 end
  begin
     id 21 
     name lhand
     direction 1 -4.48816e-011 1.82293e-026   
     length 0.521221   
     axis -1.16502e-014 90 90   XYZ
    dof rx rz
    limits (-90.0 90.0)
           (-45.0 45.0)
  end
  begin
     id 22 
     name lfingers
     direction 1 -4.49108e-011 3.65687e-026   
     length 0.420221   
     axis -2.33008e-014 90 90   XYZ
    dof rx
    limits (0.0 90.0)
  end
  begin
     id 23
     name lthumb
     direction 0.707107 -6.34943e-011 0.707107   
     length 0.603356   
     axis -90 45 5.69224e-014   XYZ
    dof rx rz
    limits (-45.0 45.0)
           (-45.0 45.0)
  end
  begin
     id 24 
     name rclavicle
     direction -0.90847 0.38596 0.160368   
     length 3.12973  
     axis 0 0 0   XYZ 
    dof ry rz
    limits (-10.0 20.0)
           (-20.0 0.0)
  end
  begin
     id 25 
     name rhumerus
     direction -1 -4.48974e-011 4.47268e-028  
     length 4.72284   
     axis 180 30 90   XYZ
    dof rx ry rz
    limits (-90.0 60.0)
           (-90.0 90.0)
           (-90.0 90.0)
  end
  begin
     id 26 
     name rradius
     direction -1 -4.48969e-011 3.43203e-027   
     length 3.23459   
     axis 180 30 90   XYZ
    dof rx
    limits (-10.0 170.0)
  end
  begin
     id 27 
     name rwrist
     direction -1 -4.48969e-011 9.12911e-027   
     length 1.6173   
     axis -6.84618e-015 -90 -90   XYZ
    dof ry
    limits (-180.0 0.0)
  end
  begin
     id 28
     name rhand
     direction -1 -4.49194e-011 1.83006e-026   
     length 0.307416   
     axis -1.16502e-014 -90 -90   XYZ
    dof rx rz
    limits (-90.0 90.0)
           (-45.0 45.0)
  end
  begin
     id 29
     name rfingers
     direction -1 -4.48423e-011 3.63103e-026   
     length 0.247847   
     axis -2.33008e-014 -90 -90   XYZ
    dof rx
    limits (0.0 90.0)
  end
  begin
     id 30
     name rthumb
     direction -0.707107 -6.34802e-011 0.707107   
     length 0.35586   
     axis -90 -45 -5.69224e-014   XYZ
    dof rx rz
    limits (-45.0 45.0)
           (-45.0 45.0)
  end
:hierarchy
  begin
    root lhipjoint rhipjoint lowerback
    lhipjoint lfemur
    lfemur ltibia
    ltibia lfoot
    lfoot ltoes
    rhipjoint rfemur
    rfemur rtibia
    rtibia rfoot
    rfoot rtoes
    lowerback upperback
    upperback thorax
    thorax lowerneck lclavicle rclavicle
    lowerneck upperneck
    upperneck head
    lclavicle lhumerus
    lhumerus lradius
    lradius lwrist
    lwrist lhand lthumb
    lhand lfingers
    rclavicle rhumerus
    rhumerus rradius
    rradius rwrist
    rwrist rhand rthumb
    rhand rfingers
  end

#!OML:ASF \\Waltz\H\Terrain\Patient Classification 1\Animal1\Tuesday\Animal1.ASF
:FULLY-SPECIFIED
:DEGREES
1
root 20.1193 15.8832 -20.9165 20.2658 -37.6533 7.56932
lowerback 24.4045 -1.45317 0.119615
upperback 7.48401 -2.07813 -0.708903
thorax -5.35007 -1.07545 -0.24446
lowerneck -5.34003 1.27442 -6.39339
upperneck -17.4328 2.52777 6.66889
head -4.49509 1.22731 3.09355
rclavicle -3.06128e-014 3.47873e-014
rhumerus 19.9699 25.7579 -78.7883
rradius 98.7587
rwrist 21.478
rhand 11.4855 -6.61644
rfingers 7.12502
rthumb 36.5339 -32.8
lclavicle -3.06128e-014 3.47873e-014
lhumerus 1.55336 -21.8727 88.5651
lradius 101.564
lwrist -68.5048
lhand 29.5261 45.0579
lfingers 7.12502
lthumb 53.2804 64.371
rfemur -61.2303 0.431541 22.6458
rtibia 86.7375
rfoot 8.22245 -3.19949
rtoes -11.8931
lfemur -35.1819 -10.2291 -26.5454
ltibia 37.0592
lfoot -13.5266 10.0433
ltoes -20.2303
2
root 19.98 15.9119 -20.7422 18.4308 -38.6316 8.61921
lowerback 25.0948 -1.2145 -0.758352
upperback 7.64444 -2.03447 -1.184
thorax -5.50544 -1.05668 -0.257031
lowerneck -5.34683 1.35559 -6.29872
upperneck -17.433 2.63955 6.68392
head -4.50045 1.27581 3.07952
rclavicle -5.96354e-014 4.45278e-014
rhumerus 20.093 25.8045 -78.9792
rradius 98.8674
rwrist 21.7103
rhand 12.7752 -6.70663
rfingers 7.12502
rthumb 37.7536 -32.5725
lclavicle -5.96354e-014 4.45278e-014
lhumerus 1.48488 -21.5925 88.4293
lradius 101.828
lwrist -67.979
lhand 30.3128 44.4026
lfingers 7.12502
lthumb 53.988 63.2488
rfemur -62.582 -0.00299142 21.6738
rtibia 86.7943
rfoot 7.47967 -5.26917
rtoes -12.5498
lfemur -31.3284 -9.73544 -28.0083
ltibia 34.1718
lfoot -13.207 10.2181
ltoes -20.7938
3
root 19.8306 15.9737 -20.56 16.9206 -39.4533 9.59431
lowerback 25.424 -1.02478 -1.32196
upperback 7.79652 -1.98618 -1.71645
thorax -5.5018 -1.03557 -0.523331
lowerneck -5.28713 1.382 -6.24791
upperneck -17.5087 2.68317 6.7478
head -4.53585 1.28938 3.09015
rclavicle -8.34896e-015 5.68524e-014
rhumerus 20.1962 25.5373 -79.4202
rradius 98.8261
rwrist 21.9176
rhand 13.8724 -5.46311
rfingers 7.12502
rthumb 38.7892 -31.0432
lclavicle -8.34896e-015 5.68524e-014
lhumerus 1.61281 -21.7373 88.1465
lradius 101.821
lwrist -67.1613
lhand 30.2647 44.9202
lfingers 7.12502
lthumb 53.9447 63.7955
rfemur -63.6348 -0.262831 20.6779
rtibia 85.5969
rfoot 6.98904 -6.25148
rtoes -11.9194
lfemur -28.3898 -9.42783 -29.1576
ltibia 32.368
lfoot -12.7413 10.4045
ltoes -21.6411
4
root 19.6837 15.9969 -20.386 16.4856 -40.0298 10.0961
lowerback 25.763 -0.731966 -2.26443
upperback 7.37646 -1.83427 -1.45276
thorax -6.09269 -0.952819 0.270286
lowerneck -5.50857 1.47879 -6.89221
upperneck -17.0659 2.79907 6.57375
head -4.38153 1.4042 3.13862
rclavicle -8.74653e-015 -1.61016e-014
rhumerus 19.857 25.8901 -78.9864
rradius 98.881
rwrist 21.9174
rhand 14.3953 -4.22635
rfingers 7.12502
rthumb 39.2821 -29.665
lclavicle -8.74653e-015 -1.61016e-014
lhumerus 1.13441 -21.496 88.9208
lradius 101.89
lwrist -66.1381
lhand 29.4626 46.1914
lfingers 7.12502
lthumb 53.2231 65.5415
rfemur -65.2771 -0.116966 19.9691
rtibia 83.9947
rfoot 6.62209 -6.46872
rtoes -8.42298
lfemur -26.7158 -9.55367 -29.5902
ltibia 30.9882
lfoot -11.7137 10.3754
ltoes -20.8449
5
root 19.5294 16.0095 -20.2201 16.6735 -40.6287 10.3373
lowerback 25.2617 -0.69148 -2.36958
upperback 7.23367 -1.82043 -1.7845
thorax -6.01041 -0.944224 -0.0432596
lowerneck -5.40705 1.61294 -6.82283
upperneck -17.3304 2.98647 6.58604
head -4.49139 1.48877 3.12724
rclavicle 3.37934e-014 -4.96962e-015
rhumerus 19.9807 25.9356 -79.351
rradius 99.0895
rwrist 22.0224
rhand 15.3751 -4.30625
rfingers 7.12502
rthumb 40.2046 -29.4703
lclavicle 3.37934e-014 -4.96962e-015
lhumerus 1.03233 -21.4101 88.4949
lradius 102.224
lwrist -65.2253
lhand 29.3277 46.7252
lfingers 7.12502
lthumb 53.1015 66.1531
rfemur -66.9796 0.586327 19.3316
rtibia 81.6752
rfoot 5.42369 -6.73615
rtoes -6.64301
lfemur -26.1023 -9.69114 -29.7084
ltibia 30.5648
lfoot -10.4698 10.1257
ltoes -21.0292
6
root 19.3622 16.0598 -20.0489 17.171 -41.2132 10.0181
lowerback 24.9252 -0.520485 -2.3163
upperback 7.14745 -1.59009 -1.90591
thorax -5.94597 -0.834278 -0.277694
lowerneck -5.66941 1.61708 -6.77009
upperneck -17.3683 3.01299 6.65089
head -4.46171 1.49813 3.14123
rclavicle 1.70955e-014 -2.60408e-014
rhumerus 20.2086 25.7183 -79.5095
rradius 99.3135
rwrist 21.8991
rhand 16.0958 -4.49904
rfingers 7.12502
rthumb 40.8821 -29.4528
lclavicle 1.70955e-014 -2.60408e-014
lhumerus 1.07783 -21.3049 88.2001
lradius 102.347
lwrist -64.8696
lhand 29.3005 46.2433
lfingers 7.12502
lthumb 53.077 65.6868
rfemur -67.8087 1.68268 19.0111
rtibia 78.5195
rfoot 3.66842 -6.80211
rtoes -5.76518
lfemur -26.0344 -9.54578 -29.3979
ltibia 31.3417
lfoot -9.47897 9.41029
ltoes -19.978
